<mxfile host="app.diagrams.net" modified="2024-02-08T14:35:02.262Z" agent="Mozilla/5.0 (Windows NT 10.0; Win64; x64) AppleWebKit/537.36 (KHTML, like Gecko) Chrome/121.0.0.0 Safari/537.36" etag="nnQakc8zu4mVYwRgIBFI" version="23.1.2" type="device">
  <diagram name="Page-1" id="2YBvvXClWsGukQMizWep">
    <mxGraphModel dx="1050" dy="557" grid="1" gridSize="10" guides="1" tooltips="1" connect="1" arrows="1" fold="1" page="1" pageScale="1" pageWidth="850" pageHeight="1100" math="0" shadow="0">
      <root>
        <mxCell id="0" />
        <mxCell id="1" parent="0" />
        <mxCell id="s5DVa0kg4pO_z1ZphEwm-1" value="" style="shape=umlLifeline;perimeter=lifelinePerimeter;whiteSpace=wrap;html=1;container=1;dropTarget=0;collapsible=0;recursiveResize=0;outlineConnect=0;portConstraint=eastwest;newEdgeStyle={&quot;curved&quot;:0,&quot;rounded&quot;:0};participant=umlActor;" parent="1" vertex="1">
          <mxGeometry x="40" y="80" width="20" height="600" as="geometry" />
        </mxCell>
        <mxCell id="s5DVa0kg4pO_z1ZphEwm-2" value="" style="html=1;points=[[0,0,0,0,5],[0,1,0,0,-5],[1,0,0,0,5],[1,1,0,0,-5]];perimeter=orthogonalPerimeter;outlineConnect=0;targetShapes=umlLifeline;portConstraint=eastwest;newEdgeStyle={&quot;curved&quot;:0,&quot;rounded&quot;:0};" parent="s5DVa0kg4pO_z1ZphEwm-1" vertex="1">
          <mxGeometry x="5" y="69" width="10" height="491" as="geometry" />
        </mxCell>
        <mxCell id="s5DVa0kg4pO_z1ZphEwm-6" value="PlayRanked" style="html=1;verticalAlign=bottom;endArrow=block;curved=0;rounded=0;" parent="1" edge="1">
          <mxGeometry width="80" relative="1" as="geometry">
            <mxPoint x="55" y="160" as="sourcePoint" />
            <mxPoint x="255" y="160" as="targetPoint" />
          </mxGeometry>
        </mxCell>
        <mxCell id="s5DVa0kg4pO_z1ZphEwm-7" value="Matchmaking_MLModel" style="shape=umlLifeline;perimeter=lifelinePerimeter;whiteSpace=wrap;html=1;container=1;dropTarget=0;collapsible=0;recursiveResize=0;outlineConnect=0;portConstraint=eastwest;newEdgeStyle={&quot;curved&quot;:0,&quot;rounded&quot;:0};" parent="1" vertex="1">
          <mxGeometry x="370" y="80" width="140" height="280" as="geometry" />
        </mxCell>
        <mxCell id="s5DVa0kg4pO_z1ZphEwm-8" value="" style="html=1;points=[[0,0,0,0,5],[0,1,0,0,-5],[1,0,0,0,5],[1,1,0,0,-5]];perimeter=orthogonalPerimeter;outlineConnect=0;targetShapes=umlLifeline;portConstraint=eastwest;newEdgeStyle={&quot;curved&quot;:0,&quot;rounded&quot;:0};" parent="s5DVa0kg4pO_z1ZphEwm-7" vertex="1">
          <mxGeometry x="65" y="70" width="10" height="50" as="geometry" />
        </mxCell>
        <mxCell id="s5DVa0kg4pO_z1ZphEwm-9" value="SearchForPlayers" style="html=1;verticalAlign=bottom;endArrow=block;curved=0;rounded=0;" parent="1" target="s5DVa0kg4pO_z1ZphEwm-8" edge="1">
          <mxGeometry width="80" relative="1" as="geometry">
            <mxPoint x="265" y="159" as="sourcePoint" />
            <mxPoint x="475" y="159" as="targetPoint" />
          </mxGeometry>
        </mxCell>
        <mxCell id="s5DVa0kg4pO_z1ZphEwm-10" value="Game_Server" style="shape=umlLifeline;perimeter=lifelinePerimeter;whiteSpace=wrap;html=1;container=1;dropTarget=0;collapsible=0;recursiveResize=0;outlineConnect=0;portConstraint=eastwest;newEdgeStyle={&quot;curved&quot;:0,&quot;rounded&quot;:0};" parent="1" vertex="1">
          <mxGeometry x="580" y="80" width="100" height="280" as="geometry" />
        </mxCell>
        <mxCell id="s5DVa0kg4pO_z1ZphEwm-11" value="" style="html=1;points=[[0,0,0,0,5],[0,1,0,0,-5],[1,0,0,0,5],[1,1,0,0,-5]];perimeter=orthogonalPerimeter;outlineConnect=0;targetShapes=umlLifeline;portConstraint=eastwest;newEdgeStyle={&quot;curved&quot;:0,&quot;rounded&quot;:0};" parent="s5DVa0kg4pO_z1ZphEwm-10" vertex="1">
          <mxGeometry x="45" y="70" width="10" height="140" as="geometry" />
        </mxCell>
        <mxCell id="s5DVa0kg4pO_z1ZphEwm-12" value="AssignPlayer" style="html=1;verticalAlign=bottom;endArrow=block;curved=0;rounded=0;" parent="1" edge="1">
          <mxGeometry width="80" relative="1" as="geometry">
            <mxPoint x="445" y="184" as="sourcePoint" />
            <mxPoint x="625" y="184" as="targetPoint" />
          </mxGeometry>
        </mxCell>
        <mxCell id="s5DVa0kg4pO_z1ZphEwm-13" value="MatchFound" style="html=1;verticalAlign=bottom;endArrow=open;dashed=1;endSize=8;curved=0;rounded=0;" parent="1" edge="1">
          <mxGeometry relative="1" as="geometry">
            <mxPoint x="625" y="240" as="sourcePoint" />
            <mxPoint x="265" y="240" as="targetPoint" />
          </mxGeometry>
        </mxCell>
        <mxCell id="s5DVa0kg4pO_z1ZphEwm-14" value="MatchController" style="shape=umlLifeline;perimeter=lifelinePerimeter;whiteSpace=wrap;html=1;container=1;dropTarget=0;collapsible=0;recursiveResize=0;outlineConnect=0;portConstraint=eastwest;newEdgeStyle={&quot;curved&quot;:0,&quot;rounded&quot;:0};" parent="1" vertex="1">
          <mxGeometry x="740" y="80" width="100" height="480" as="geometry" />
        </mxCell>
        <mxCell id="s5DVa0kg4pO_z1ZphEwm-15" value="" style="html=1;points=[[0,0,0,0,5],[0,1,0,0,-5],[1,0,0,0,5],[1,1,0,0,-5]];perimeter=orthogonalPerimeter;outlineConnect=0;targetShapes=umlLifeline;portConstraint=eastwest;newEdgeStyle={&quot;curved&quot;:0,&quot;rounded&quot;:0};" parent="s5DVa0kg4pO_z1ZphEwm-14" vertex="1">
          <mxGeometry x="45" y="170" width="10" height="270" as="geometry" />
        </mxCell>
        <mxCell id="s5DVa0kg4pO_z1ZphEwm-16" value="CreateMatch" style="html=1;verticalAlign=bottom;endArrow=block;curved=0;rounded=0;" parent="1" edge="1">
          <mxGeometry width="80" relative="1" as="geometry">
            <mxPoint x="635" y="279" as="sourcePoint" />
            <mxPoint x="785" y="279" as="targetPoint" />
          </mxGeometry>
        </mxCell>
        <mxCell id="s5DVa0kg4pO_z1ZphEwm-17" value="SolveProblem" style="html=1;verticalAlign=bottom;endArrow=block;curved=0;rounded=0;" parent="1" edge="1">
          <mxGeometry width="80" relative="1" as="geometry">
            <mxPoint x="55" y="385" as="sourcePoint" />
            <mxPoint x="255" y="385" as="targetPoint" />
          </mxGeometry>
        </mxCell>
        <mxCell id="s5DVa0kg4pO_z1ZphEwm-19" value="Submit" style="html=1;verticalAlign=bottom;endArrow=block;curved=0;rounded=0;" parent="1" edge="1">
          <mxGeometry width="80" relative="1" as="geometry">
            <mxPoint x="55" y="425" as="sourcePoint" />
            <mxPoint x="255" y="425" as="targetPoint" />
          </mxGeometry>
        </mxCell>
        <mxCell id="s5DVa0kg4pO_z1ZphEwm-20" value="Results" style="html=1;verticalAlign=bottom;endArrow=open;dashed=1;endSize=8;curved=0;rounded=0;" parent="1" edge="1">
          <mxGeometry relative="1" as="geometry">
            <mxPoint x="785" y="480" as="sourcePoint" />
            <mxPoint x="265" y="480" as="targetPoint" />
          </mxGeometry>
        </mxCell>
        <mxCell id="s5DVa0kg4pO_z1ZphEwm-21" value="SeeResults" style="html=1;verticalAlign=bottom;endArrow=block;curved=0;rounded=0;" parent="1" edge="1">
          <mxGeometry width="80" relative="1" as="geometry">
            <mxPoint x="55" y="540" as="sourcePoint" />
            <mxPoint x="255" y="540" as="targetPoint" />
          </mxGeometry>
        </mxCell>
        <mxCell id="s5DVa0kg4pO_z1ZphEwm-22" value="ReturnToHomepage" style="html=1;verticalAlign=bottom;endArrow=block;curved=0;rounded=0;" parent="1" edge="1">
          <mxGeometry width="80" relative="1" as="geometry">
            <mxPoint x="55" y="600" as="sourcePoint" />
            <mxPoint x="255" y="600" as="targetPoint" />
          </mxGeometry>
        </mxCell>
        <mxCell id="RSGlOPkkJICQ1DQdjpl1-1" value="UI" style="shape=umlLifeline;perimeter=lifelinePerimeter;whiteSpace=wrap;html=1;container=1;dropTarget=0;collapsible=0;recursiveResize=0;outlineConnect=0;portConstraint=eastwest;newEdgeStyle={&quot;curved&quot;:0,&quot;rounded&quot;:0};" vertex="1" parent="1">
          <mxGeometry x="210" y="80" width="100" height="600" as="geometry" />
        </mxCell>
        <mxCell id="RSGlOPkkJICQ1DQdjpl1-2" value="" style="html=1;points=[[0,0,0,0,5],[0,1,0,0,-5],[1,0,0,0,5],[1,1,0,0,-5]];perimeter=orthogonalPerimeter;outlineConnect=0;targetShapes=umlLifeline;portConstraint=eastwest;newEdgeStyle={&quot;curved&quot;:0,&quot;rounded&quot;:0};" vertex="1" parent="RSGlOPkkJICQ1DQdjpl1-1">
          <mxGeometry x="45" y="69" width="10" height="491" as="geometry" />
        </mxCell>
        <mxCell id="RSGlOPkkJICQ1DQdjpl1-3" value="Match" style="html=1;verticalAlign=bottom;endArrow=open;dashed=1;endSize=8;curved=0;rounded=0;" edge="1" parent="1">
          <mxGeometry relative="1" as="geometry">
            <mxPoint x="785" y="331" as="sourcePoint" />
            <mxPoint x="265" y="331" as="targetPoint" />
          </mxGeometry>
        </mxCell>
        <mxCell id="RSGlOPkkJICQ1DQdjpl1-4" value="Database" style="shape=umlLifeline;perimeter=lifelinePerimeter;whiteSpace=wrap;html=1;container=1;dropTarget=0;collapsible=0;recursiveResize=0;outlineConnect=0;portConstraint=eastwest;newEdgeStyle={&quot;curved&quot;:0,&quot;rounded&quot;:0};" vertex="1" parent="1">
          <mxGeometry x="910" y="80" width="100" height="360" as="geometry" />
        </mxCell>
        <mxCell id="RSGlOPkkJICQ1DQdjpl1-5" value="" style="html=1;points=[[0,0,0,0,5],[0,1,0,0,-5],[1,0,0,0,5],[1,1,0,0,-5]];perimeter=orthogonalPerimeter;outlineConnect=0;targetShapes=umlLifeline;portConstraint=eastwest;newEdgeStyle={&quot;curved&quot;:0,&quot;rounded&quot;:0};" vertex="1" parent="RSGlOPkkJICQ1DQdjpl1-4">
          <mxGeometry x="45" y="210" width="10" height="40" as="geometry" />
        </mxCell>
        <mxCell id="RSGlOPkkJICQ1DQdjpl1-6" value="SaveMatch" style="html=1;verticalAlign=bottom;endArrow=block;curved=0;rounded=0;" edge="1" parent="1">
          <mxGeometry width="80" relative="1" as="geometry">
            <mxPoint x="795" y="306" as="sourcePoint" />
            <mxPoint x="955" y="306" as="targetPoint" />
          </mxGeometry>
        </mxCell>
      </root>
    </mxGraphModel>
  </diagram>
</mxfile>
